<?xml version="1.0" encoding="UTF-8" standalone="no"?>
<!-- Created with Inkscape (http://www.inkscape.org/) -->

<svg
   version="1.1"
   id="svg1"
   width="250"
   height="250"
   viewBox="0 0 250 250"
   sodipodi:docname="logo.svg"
   inkscape:version="1.4.2 (f4327f4, 2025-05-13)"
   xmlns:inkscape="http://www.inkscape.org/namespaces/inkscape"
   xmlns:sodipodi="http://sodipodi.sourceforge.net/DTD/sodipodi-0.dtd"
   xmlns="http://www.w3.org/2000/svg"
   xmlns:svg="http://www.w3.org/2000/svg">
   <defs
      id="defs1">
      <style id="style-logo">
         .logo-path { fill: #7b39ee; }
         @media (prefers-color-scheme: dark) {
         .logo-path { fill: #ffffff; }
         }
      </style>
      <linearGradient
         id="swatch7"
         inkscape:swatch="solid">
         <stop
            style="stop-color:#ff533a;stop-opacity:1;"
            offset="0"
            id="stop7" />
      </linearGradient>
   </defs>
   <sodipodi:namedview
      id="namedview1"
      pagecolor="#ffffff"
      bordercolor="#000000"
      borderopacity="0.25"
      inkscape:showpageshadow="2"
      inkscape:pageopacity="0.0"
      inkscape:pagecheckerboard="0"
      inkscape:deskcolor="#d1d1d1"
      showgrid="false"
      inkscape:zoom="1.4194385"
      inkscape:cx="125.04945"
      inkscape:cy="117.2999"
      inkscape:window-width="1920"
      inkscape:window-height="1017"
      inkscape:window-x="-8"
      inkscape:window-y="-8"
      inkscape:window-maximized="1"
      inkscape:current-layer="g1" />
   <g
      inkscape:groupmode="layer"
      inkscape:label="Image"
      id="g1"
      transform="translate(-75,-75)">
      <path
         class="logo-path"
         style="fill-opacity:1;stroke-width:0.855832"
         d="m 189.34586,324.62612 c -43.48423,-3.06733 -84.41196,-31.77841 -103.30428,-72.46875 -3.62133,-7.79958 -7.75175,-20.64458 -9.85874,-30.65925 -1.76684,-8.39825 -1.498,-36.21766 0.43083,-44.55925 4.13883,-17.90025 11.30624,-34.89483 20.30149,-48.13683 6.12549,-9.01734 22.44332,-25.18485 31.96348,-31.669006 14.76041,-10.05334 31.88465,-17.20342 49.14872,-20.52175 11.9215,-2.2915 34.15232,-2.11259 45.85598,0.36916 10.40749,2.20675 24.00648,6.84484 32.28956,11.01267 30.6089,15.401916 54.71272,44.307586 64.13855,76.915836 5.49725,19.01742 6.23133,44.46484 1.82675,63.32417 -5.76433,24.68175 -19.67516,48.3235 -37.93606,64.47309 -26.99049,23.86983 -58.52822,34.48258 -94.85612,31.92008 z m 29.82306,-7.97991 c 37.5734,-6.56875 70.0433,-30.67509 87.03137,-64.61392 4.0755,-8.142 9.19258,-24.271 10.77466,-33.96175 1.70325,-10.43242 1.28309,-30.97017 -0.83083,-40.6305 -5.04358,-23.04434 -16.10824,-43.78067 -31.96907,-59.91334 -10.12532,-10.29892 -17.4944,-15.81842 -29.21906,-21.885256 -11.057,-5.72141 -18.04691,-8.25275 -31.23282,-11.31058 -8.89224,-2.06225 -11.94774,-2.366 -23.4719,-2.33317 -32.22123,0.0917 -59.34922,11.20809 -82.55746,33.829596 -10.23941,9.9805 -16.80507,18.84741 -22.98632,31.04341 -18.48757,36.47684 -17.3569,76.75476 3.151502,112.26234 17.062408,29.54117 48.512888,51.47983 82.305458,57.41308 9.23791,1.622 29.99465,1.67525 39.00481,0.1 z m -46.2703,-49.30334 c 0,-1.40583 0.57583,-1.71725 3.20533,-1.73266 5.10549,-0.0333 9.92241,-2.68492 11.81782,-6.5135 1.52284,-3.076 1.64467,-5.41584 1.64467,-31.58292 v -28.26058 l -18.16366,-10.69034 c -9.98999,-5.87966 -18.16365,-11.038 -18.16365,-11.463 0,-0.425 0.48083,-0.56333 1.06841,-0.3075 0.5875,0.25584 8.569,3.76742 17.73633,7.80317 9.16732,4.03567 16.95632,7.338 17.3089,7.33842 0.3525,4.1e-4 0.64084,-12.66842 0.64084,-28.15301 V 135.6272 l -5.76967,-0.48333 c -11.06291,-0.92717 -18.85649,1.89267 -25.91732,9.37717 -4.32066,4.57991 -8.91166,12.98775 -9.86407,18.06475 -0.4175,2.22591 -0.93567,2.785 -2.58059,2.785 -1.69108,0 -1.98183,-0.34417 -1.63049,-1.92809 0.38833,-1.75225 3.02408,-29.10333 3.02408,-31.38316 0,-0.705 14.04957,-0.96517 52.14038,-0.96517 42.9984,0 52.14048,0.20083 52.14048,1.14767 0,2.51858 2.59783,28.57283 3.07524,30.84275 0.45084,2.14116 0.28667,2.3935 -1.38908,2.14225 -1.52041,-0.2275 -2.36358,-1.6055 -4.22416,-6.9015 -3.556,-10.12209 -8.87333,-16.62909 -16.94858,-20.74084 -3.25158,-1.65558 -16.48257,-3.37183 -20.00865,-2.5955 l -2.38808,0.52584 v 28.65816 28.65817 l 1.92324,-1.23233 c 3.03759,-1.9465 63.1938,-28.07209 63.63039,-27.63442 0.21583,0.21583 -2.041,1.72708 -5.01475,3.35775 -9.57091,5.248 -48.81939,26.0395 -54.55555,28.90017 -3.05575,1.524 -5.672,2.87367 -5.81392,2.99933 -0.14166,0.12584 -0.22833,12.82067 -0.1925,28.21117 0.075,32.41017 0.32,33.81808 6.35392,36.56533 1.92466,0.87625 4.94174,1.60167 6.70466,1.612 2.62925,0.0167 3.20533,0.32667 3.20533,1.73267 0,1.67692 -0.57,1.71383 -26.49757,1.71383 -25.92773,0 -26.49757,-0.0333 -26.49757,-1.71383 z m 31.43598,-58.74691 c 3.04675,-2.13942 2.18691,-3.06267 -1.06242,-1.14067 -1.91866,1.13483 -3.61241,1.54508 -4.80816,1.16467 -1.24675,-0.39667 -1.65625,-0.27917 -1.26133,0.36083 0.85141,1.38108 4.93024,1.16075 7.13191,-0.385 z"
         id="path1" />
   </g>
</svg>